<svg viewBox="0 0 512 512" xmlns="http://www.w3.org/2000/svg">
  <!-- Background gradient -->
  <defs>
    <linearGradient id="bg" x1="0%" y1="0%" x2="100%" y2="100%">
      <stop offset="0%" style="stop-color:#3b82f6;stop-opacity:1" />
      <stop offset="100%" style="stop-color:#1d4ed8;stop-opacity:1" />
    </linearGradient>
    <linearGradient id="chat" x1="0%" y1="0%" x2="100%" y2="100%">
      <stop offset="0%" style="stop-color:#ffffff;stop-opacity:1" />
      <stop offset="100%" style="stop-color:#f3f4f6;stop-opacity:1" />
    </linearGradient>
    <radialGradient id="ai" cx="50%" cy="50%" r="50%">
      <stop offset="0%" style="stop-color:#10b981;stop-opacity:1" />
      <stop offset="100%" style="stop-color:#059669;stop-opacity:1" />
    </radialGradient>
  </defs>
  
  <!-- Background circle -->
  <circle cx="256" cy="256" r="240" fill="url(#bg)" stroke="#1e40af" stroke-width="8"/>
  
  <!-- Chat bubble -->
  <path d="M120 180 C120 150 150 120 180 120 L360 120 C390 120 420 150 420 180 L420 260 C420 290 390 320 360 320 L240 320 L180 380 L180 320 C150 320 120 290 120 260 Z" fill="url(#chat)" stroke="#e5e7eb" stroke-width="3"/>
  
  <!-- AI brain/circuit pattern inside chat bubble -->
  <g transform="translate(256,220)" stroke="#3b82f6" stroke-width="3" fill="none">
    <!-- Central node -->
    <circle cx="0" cy="0" r="12" fill="url(#ai)"/>
    
    <!-- Connection lines -->
    <line x1="-40" y1="-20" x2="-15" y2="-8"/>
    <line x1="40" y1="-20" x2="15" y2="-8"/>
    <line x1="-40" y1="20" x2="-15" y2="8"/>
    <line x1="40" y1="20" x2="15" y2="8"/>
    
    <!-- Outer nodes -->
    <circle cx="-40" cy="-20" r="8" fill="url(#ai)"/>
    <circle cx="40" cy="-20" r="8" fill="url(#ai)"/>
    <circle cx="-40" cy="20" r="8" fill="url(#ai)"/>
    <circle cx="40" cy="20" r="8" fill="url(#ai)"/>
  </g>
  
  <!-- Sparkle effects -->
  <g fill="#fbbf24" opacity="0.8">
    <polygon points="140,140 144,148 152,152 144,156 140,164 136,156 128,152 136,148" />
    <polygon points="380,160 383,166 389,169 383,172 380,178 377,172 371,169 377,166" />
    <polygon points="350,340 353,346 359,349 353,352 350,358 347,352 341,349 347,346" />
  </g>
</svg>